<?xml version="1.0" encoding="UTF-8"?>
<svg xmlns:serif="http://www.serif.com/" xmlns="http://www.w3.org/2000/svg" xmlns:xlink="http://www.w3.org/1999/xlink" version="1.1" id="Ebene_1" x="0px" y="0px" viewBox="0 0 1010.6 733" style="enable-background:new 0 0 1010.6 733;" xml:space="preserve">
<style type="text/css">
	.st0{fill:none;stroke:#0A2A46;stroke-width:3.7026;stroke-linecap:round;stroke-linejoin:round;stroke-miterlimit:10;}
	.st1{fill-rule:evenodd;clip-rule:evenodd;fill:#0A2A46;}
	.st2{fill-rule:evenodd;clip-rule:evenodd;fill:#FFFFFF;}
	.st3{fill:#FFFFFF;}
	.st4{enable-background:new    ;}
	.st5{fill:#0A2A46;}
</style>
<path class="st0" d="M654.7,115.9l-381.2,17.5l233.1,175.1l281.7,34.9l-89.6,177.2l-209.6,86.6L322,447.4l-48.6-314l48.6,314  l184.5-138.9l281.7,34.9L654.7,115.9L654.7,115.9z"></path>
<circle class="st1" cx="275.4" cy="132.3" r="17.5"></circle>
<circle class="st1" cx="654.5" cy="116" r="17.5"></circle>
<circle class="st1" cx="506.3" cy="308.1" r="17.5"></circle>
<circle class="st1" cx="490" cy="607.4" r="17.5"></circle>
<path class="st0" d="M506.6,308.5l148.1-192.6"></path>
<path class="st0" d="M506.6,308.5l192.1,212.1"></path>
<path class="st0" d="M489.1,607.2l17.5-298.8"></path>
<g>
	<circle class="st1" cx="788.3" cy="343.4" r="17.5"></circle>
	<path class="st2" d="M784.6,342.1h-5.3l8.9-8.9l8.9,8.9h-5.3v11.5h-7.3L784.6,342.1L784.6,342.1z"></path>
</g>
<g>
	<circle class="st1" cx="698.6" cy="520.4" r="17.5"></circle>
	<path class="st2" d="M708.6,528.2l-6.2-6.4c0.8-1.2,1.3-2.7,1.3-4.3c0-4.2-3.4-7.5-7.5-7.5c-4.2,0-7.5,3.4-7.5,7.5   c0,4.2,3.4,7.5,7.5,7.5c1.3,0,2.5-0.3,3.5-0.9l6.4,6.5L708.6,528.2z M691.6,517.6c0-2.5,2.1-4.6,4.6-4.6s4.6,2.1,4.6,4.6   s-2.1,4.6-4.6,4.6C693.7,522.1,691.6,520.1,691.6,517.6z"></path>
</g>
<g>
	<rect x="264.9" y="134.2" class="st2" width="4.6" height="7.8"></rect>
	<rect x="273.1" y="122.5" class="st2" width="4.6" height="19.5"></rect>
	<rect x="281.3" y="129.8" class="st2" width="4.6" height="12.2"></rect>
</g>
<g>
	<circle class="st1" cx="322" cy="446.9" r="17.5"></circle>
	<path class="st2" d="M323.6,436.3c-1-0.1-2.1-0.1-3.1,0L320,438c-1,0.2-1.9,0.6-2.7,1.1l-1.6-0.9c-0.8,0.6-1.6,1.4-2.2,2.2l0.9,1.6   c-0.5,0.8-0.9,1.8-1.1,2.7l-1.7,0.5c-0.1,1-0.1,2.1,0,3.1l1.7,0.5c0.2,1,0.6,1.9,1.1,2.7l-0.9,1.6c0.6,0.8,1.4,1.6,2.2,2.2l1.6-0.9   c0.8,0.5,1.8,0.9,2.7,1.1l0.5,1.7c1,0.1,2.1,0.1,3.1,0l0.5-1.7c1-0.2,1.9-0.6,2.7-1.1l1.6,0.9c0.8-0.6,1.6-1.4,2.2-2.2l-0.9-1.6   c0.5-0.8,0.9-1.8,1.1-2.7l1.7-0.5c0.1-1,0.1-2.1,0-3.1l-1.7-0.5c-0.2-1-0.6-1.9-1.1-2.7l0.9-1.6c-0.6-0.8-1.4-1.6-2.2-2.2l-1.6,0.9   c-0.8-0.5-1.8-0.9-2.7-1.1L323.6,436.3z M322,442c2.7,0,4.8,2.2,4.8,4.8c0,2.7-2.2,4.8-4.8,4.8c-2.7,0-4.8-2.2-4.8-4.8   S319.4,442,322,442z"></path>
</g>
<g>
	<path class="st3" d="M654.5,104.8c-3,0-5.5,2.4-5.5,5.5c0,3,2.4,6.2,5.5,6.2c3,0,5.5-3.2,5.5-6.2   C660,107.2,657.5,104.8,654.5,104.8"></path>
	<path class="st3" d="M658.6,116.5c-1.1,0.8-2.4,1.3-3.8,1.3h-0.6c-1.4,0-2.8-0.5-3.8-1.3c-3.5,0.6-6.1,3.6-6.1,7.2   c0,2,4.6,3.6,10.2,3.6s10.2-1.6,10.2-3.6C664.7,120.1,662.1,117.1,658.6,116.5L658.6,116.5z"></path>
</g>
<g>
	<path class="st3" d="M499.2,599.7c0,0.7-0.9,1.5-2.5,2c-1.8,0.6-4.2,1-6.7,1s-4.9-0.4-6.7-1c-1.6-0.6-2.5-1.3-2.5-2s0.9-1.5,2.5-2   c1.8-0.6,4.2-1,6.7-1s4.9,0.4,6.7,1C498.2,598.2,499.2,599,499.2,599.7z"></path>
	<path class="st3" d="M499.2,601.5v3.3c0,0.7-0.9,1.5-2.5,2c-1.8,0.6-4.2,1-6.7,1s-4.9-0.4-6.7-1c-1.6-0.6-2.5-1.3-2.5-2v-3.3   c0.1,0.1,0.2,0.2,0.3,0.2l0.1,0.1l0.1,0.1c0,0,0,0,0.1,0c0,0,0.1,0,0.1,0.1l0,0h0.1c0,0,0,0,0.1,0h0.1c0,0,0,0,0.1,0l0,0   c0,0,0,0,0.1,0s0.1,0.1,0.2,0.1c0,0,0,0,0.1,0c0,0,0.1,0,0.1,0.1h0.1h0.1h0.1h0.1h0.1c0.1,0,0.1,0,0.2,0.1c1.9,0.7,4.4,1.1,7.1,1.1   s5.2-0.4,7.1-1.1c0.1,0,0.1,0,0.2-0.1h0.1h0.1h0.1h0.1h0.1c0,0,0.1,0,0.1-0.1c0,0,0,0,0.1,0s0.1-0.1,0.2-0.1c0,0,0,0,0.1,0l0,0   c0,0,0,0,0.1,0h0.1c0,0,0,0,0.1,0h0.1l0,0c0,0,0.1,0,0.1-0.1c0,0,0,0,0.1,0l0.1-0.1l0.1-0.1C499,601.6,499.1,601.6,499.2,601.5   L499.2,601.5z"></path>
	<path class="st3" d="M499.2,606.6v3.3c0,0.7-0.9,1.5-2.5,2c-1.8,0.6-4.2,1-6.7,1s-4.9-0.4-6.7-1c-1.6-0.6-2.5-1.3-2.5-2v-3.3   c0.5,0.4,1.3,0.8,2.2,1.2c1.9,0.7,4.4,1.1,7.1,1.1s5.2-0.4,7.1-1.1C497.9,607.4,498.7,607,499.2,606.6L499.2,606.6z"></path>
	<path class="st3" d="M480.7,615v-3.3c0.5,0.4,1.3,0.8,2.2,1.2c1.9,0.7,4.4,1.1,7.1,1.1s5.2-0.4,7.1-1.1c0.9-0.3,1.6-0.7,2.2-1.2   v3.3c0,0.7-0.9,1.5-2.5,2c-1.8,0.6-4.2,1-6.7,1s-4.9-0.4-6.7-1C481.7,616.5,480.7,615.7,480.7,615L480.7,615z"></path>
</g>
<g>
	<path class="st3" d="M509.1,298c0.6,0.2,0.9,0.8,0.8,1.3l-4.9,18.2c-0.1,0.5-0.6,0.8-1.1,0.8c-0.1,0-0.2,0-0.3,0   c-0.6-0.2-0.9-0.8-0.8-1.3l4.9-18.2C507.9,298.2,508.5,297.8,509.1,298L509.1,298z M500.9,302.7c0.4,0.4,0.4,1.1,0,1.6l-3.9,3.9   l3.9,3.9c0.4,0.4,0.4,1.1,0,1.6c-0.2,0.2-0.5,0.3-0.8,0.3s-0.6-0.1-0.8-0.3l-4.6-4.7c-0.2-0.2-0.3-0.5-0.3-0.8   c0-0.3,0.1-0.5,0.3-0.7l4.6-4.6C499.8,302.3,500.5,302.3,500.9,302.7L500.9,302.7z M513.2,302.7l4.7,4.6c0.2,0.2,0.3,0.4,0.3,0.6   c0,0.3-0.1,0.7-0.3,0.9l-4.7,4.7c-0.2,0.2-0.5,0.3-0.8,0.3s-0.6-0.1-0.8-0.3c-0.4-0.4-0.4-1.1,0-1.6l3.9-3.9l-3.9-3.9   c-0.4-0.4-0.4-1.1,0-1.6C512.1,302.3,512.8,302.3,513.2,302.7L513.2,302.7z"></path>
</g>
<g class="st4">
	<path class="st5" d="M177,93.7l3-10h3.1l-4.7,13.3h-2.8l-4.7-13.3h3.1L177,93.7z"></path>
	<path class="st5" d="M184.2,84.4c0-0.5,0.2-0.8,0.5-0.9c0.3-0.2,0.6-0.3,1.1-0.3s0.8,0.2,1.1,0.3c0.3,0.2,0.5,0.6,0.5,0.9   c0,0.5-0.2,0.8-0.5,0.9c-0.3,0.2-0.6,0.3-1.1,0.3s-0.8-0.2-1.1-0.3C184.4,85.2,184.2,84.9,184.2,84.4z M187,96.9h-2.7v-9.8h2.7   V96.9z"></path>
	<path class="st5" d="M194.5,94.3c0-0.3-0.2-0.6-0.5-0.8c-0.3-0.2-0.8-0.3-1.6-0.5c-2.3-0.5-3.6-1.6-3.6-3c0-0.9,0.3-1.6,1.1-2.2   c0.8-0.6,1.7-0.9,2.8-0.9c1.3,0,2.2,0.3,3,0.9c0.8,0.6,1.1,1.4,1.1,2.3h-2.7c0-0.3-0.2-0.6-0.3-0.9s-0.6-0.3-1.1-0.3   s-0.8,0.2-1.1,0.3c-0.3,0.2-0.3,0.5-0.3,0.8s0.2,0.5,0.5,0.8c0.3,0.3,0.8,0.3,1.4,0.5c0.6,0.2,1.3,0.3,1.7,0.5c1.4,0.5,2,1.4,2,2.7   c0,0.9-0.3,1.6-1.1,2.2s-1.7,0.8-3,0.8c-0.8,0-1.6-0.2-2.2-0.5s-1.1-0.6-1.6-1.3s-0.6-1.1-0.6-1.7h2.5c0,0.5,0.2,0.8,0.5,1.1   c0.3,0.3,0.8,0.3,1.3,0.3s0.9-0.2,1.1-0.3C194,94.9,194.5,94.4,194.5,94.3z"></path>
	<path class="st5" d="M204.7,96c-0.6,0.8-1.6,1.3-2.7,1.3s-1.9-0.3-2.5-0.9c-0.6-0.6-0.8-1.6-0.8-2.7v-6.6h2.7v6.4   c0,1.1,0.5,1.6,1.4,1.6c0.9,0,1.6-0.3,1.9-0.9v-7h2.7v9.8h-2.5L204.7,96z"></path>
	<path class="st5" d="M215,96.9c-0.2-0.3-0.2-0.5-0.3-0.9c-0.6,0.8-1.4,1.1-2.5,1.1c-0.9,0-1.7-0.3-2.3-0.8   c-0.6-0.5-0.9-1.3-0.9-2.2c0-1.1,0.3-1.9,1.1-2.3c0.8-0.5,1.9-0.8,3.4-0.8h1.3v-0.6c0-0.5-0.2-0.8-0.3-1.1s-0.6-0.5-1.1-0.5   s-0.8,0.2-1.1,0.3c-0.3,0.2-0.3,0.5-0.3,0.9H209c0-0.6,0.2-1.1,0.5-1.6c0.3-0.5,0.8-0.9,1.6-1.1c0.8-0.2,1.4-0.5,2.2-0.5   c1.3,0,2.2,0.3,3,0.9c0.8,0.6,1.1,1.4,1.1,2.7v4.2c0,0.9,0.2,1.7,0.5,2.2v0.2H215V96.9z M212.8,95.1c0.3,0,0.8-0.2,1.1-0.3   c0.3-0.2,0.6-0.5,0.8-0.6v-1.7h-0.9c-1.3,0-2,0.5-2.2,1.4V94c0,0.3,0.2,0.6,0.3,0.8C212,94.9,212.5,95.1,212.8,95.1z"></path>
	<path class="st5" d="M222.2,96.9h-2.7V82.9h2.7V96.9z"></path>
	<path class="st5" d="M224.4,84.4c0-0.5,0.2-0.8,0.5-0.9c0.3-0.2,0.6-0.3,1.1-0.3s0.8,0.2,1.1,0.3c0.3,0.2,0.5,0.6,0.5,0.9   c0,0.5-0.2,0.8-0.5,0.9c-0.3,0.2-0.6,0.3-1.1,0.3s-0.8-0.2-1.1-0.3C224.5,85.2,224.4,84.9,224.4,84.4z M227.2,96.9h-2.7v-9.8h2.7   V96.9z"></path>
	<path class="st5" d="M232.3,94.8h4.8v2.2h-8.3v-1.6l4.7-6.1H229v-2.2h8v1.6L232.3,94.8z"></path>
	<path class="st5" d="M244.5,96.9c-0.2-0.3-0.2-0.5-0.3-0.9c-0.6,0.8-1.4,1.1-2.5,1.1c-0.9,0-1.7-0.3-2.3-0.8   c-0.6-0.5-0.9-1.3-0.9-2.2c0-1.1,0.3-1.9,1.1-2.3c0.8-0.5,1.9-0.8,3.4-0.8h1.3v-0.6c0-0.5-0.2-0.8-0.3-1.1s-0.6-0.5-1.1-0.5   s-0.8,0.2-1.1,0.3c-0.3,0.2-0.3,0.5-0.3,0.9h-2.7c0-0.6,0.2-1.1,0.5-1.6c0.3-0.5,0.8-0.9,1.6-1.1c0.8-0.2,1.4-0.5,2.2-0.5   c1.3,0,2.2,0.3,3,0.9c0.8,0.6,1.1,1.4,1.1,2.7v4.2c0,0.9,0.2,1.7,0.5,2.2v0.2h-3V96.9z M242.3,95.1c0.3,0,0.8-0.2,1.1-0.3   c0.3-0.2,0.6-0.5,0.8-0.6v-1.7h-0.9c-1.3,0-2,0.5-2.2,1.4V94c0,0.3,0.2,0.6,0.3,0.8C241.6,94.9,242,95.1,242.3,95.1z"></path>
	<path class="st5" d="M252,84.6v2.5h1.7V89H252v5c0,0.3,0,0.6,0.2,0.8c0.2,0.2,0.5,0.3,0.8,0.3c0.3,0,0.6,0,0.8,0v2   c-0.5,0.2-1.1,0.3-1.6,0.3c-1.9,0-2.8-0.9-2.8-2.8v-5.3H248v-1.9h1.4v-2.5h2.7V84.6z"></path>
	<path class="st5" d="M255.1,84.4c0-0.5,0.2-0.8,0.5-0.9c0.3-0.2,0.6-0.3,1.1-0.3s0.8,0.2,1.1,0.3c0.3,0.2,0.5,0.6,0.5,0.9   c0,0.5-0.2,0.8-0.5,0.9c-0.3,0.2-0.6,0.3-1.1,0.3s-0.8-0.2-1.1-0.3C255.3,85.2,255.1,84.9,255.1,84.4z M258,96.9h-2.7v-9.8h2.7   V96.9z"></path>
	<path class="st5" d="M259.8,91.9c0-0.9,0.2-1.9,0.6-2.7c0.5-0.8,0.9-1.4,1.6-1.7c0.6-0.3,1.6-0.6,2.5-0.6c1.4,0,2.5,0.5,3.3,1.3   c0.8,0.8,1.3,1.9,1.4,3.3v0.6c0,1.6-0.5,2.8-1.3,3.6c-0.8,0.8-2,1.4-3.4,1.4s-2.5-0.5-3.4-1.4C260.1,94.8,259.8,93.7,259.8,91.9   L259.8,91.9z M262.3,92.1c0,0.9,0.2,1.7,0.5,2.2c0.3,0.5,0.9,0.8,1.6,0.8c0.6,0,1.1-0.3,1.6-0.8c0.3-0.5,0.5-1.3,0.5-2.3   c0-0.9-0.2-1.6-0.5-2.2c-0.3-0.5-0.9-0.8-1.6-0.8c-0.6,0-1.1,0.3-1.6,0.8C262.6,90.2,262.3,91,262.3,92.1z"></path>
	<path class="st5" d="M273.3,87.1l0.2,1.1c0.8-0.9,1.7-1.3,2.8-1.3c1.1,0,1.9,0.3,2.3,0.9c0.5,0.6,0.8,1.6,0.8,2.8v6.4h-2.7v-6.4   c0-0.6-0.2-0.9-0.3-1.3c-0.2-0.3-0.6-0.3-1.3-0.3c-0.8,0-1.3,0.3-1.7,0.9v7h-2.7v-9.8h2.5V87.1z"></path>
	<path class="st5" d="M293,93.5c0-0.5-0.2-0.9-0.6-1.3c-0.5-0.3-1.1-0.6-2-0.9s-1.7-0.6-2.2-0.9c-1.6-0.8-2.3-1.9-2.3-3.3   c0-0.8,0.2-1.4,0.6-1.9s0.9-0.9,1.7-1.3c0.8-0.3,1.6-0.5,2.5-0.5s1.9,0.2,2.5,0.5c0.6,0.3,1.3,0.8,1.7,1.4s0.6,1.4,0.6,2.2h-2.8   c0-0.6-0.2-1.1-0.6-1.4c-0.5-0.3-0.9-0.5-1.6-0.5c-0.6,0-1.3,0.2-1.6,0.5c-0.3,0.3-0.2,0.5-0.2,0.9c0,0.5,0.2,0.8,0.6,1.1   s1.1,0.6,1.9,0.8c1.6,0.5,2.7,1.1,3.4,1.7s1.1,1.6,1.1,2.7s-0.5,2-1.3,2.7c-0.8,0.6-2,0.9-3.6,0.9c-1.1,0-2-0.2-2.8-0.6   c-0.8-0.5-1.6-0.9-1.9-1.6s-0.6-1.4-0.6-2.3h2.8c0,1.4,0.9,2.2,2.7,2.2c0.6,0,1.1-0.2,1.6-0.5S293,94,293,93.5z"></path>
	<path class="st5" d="M302,97.1c-1.4,0-2.7-0.5-3.6-1.4c-0.9-0.9-1.4-2-1.4-3.6v-0.3c0-0.9,0.2-1.9,0.6-2.7c0.5-0.8,0.9-1.4,1.6-1.9   c0.6-0.5,1.6-0.6,2.3-0.6c1.4,0,2.3,0.5,3.1,1.3c0.8,0.8,1.1,2,1.1,3.6v1.4h-6.3c0.2,0.6,0.3,1.1,0.8,1.6s0.9,0.6,1.6,0.6   c1.1,0,1.9-0.3,2.3-1.1l1.3,1.4c-0.5,0.6-0.9,0.9-1.6,1.3C303.3,96.9,302.8,97.1,302,97.1z M301.7,89c-0.5,0-0.9,0.2-1.3,0.5   c-0.3,0.3-0.5,0.9-0.6,1.6h3.8v-0.2c0-0.6-0.2-1.1-0.5-1.4C302.8,89.1,302.3,89,301.7,89z"></path>
	<path class="st5" d="M313.1,89.6c-0.3,0-0.6,0-0.9,0c-0.9,0-1.7,0.3-2,1.1v6.4h-2.7v-9.8h2.5v1.3c0.5-0.9,1.3-1.4,2.2-1.4   c0.3,0,0.6,0,0.8,0.2L313.1,89.6z"></path>
	<path class="st5" d="M318.3,93.7l1.9-6.7h2.8l-3.3,9.8h-2.5l-3.3-9.8h2.8L318.3,93.7z"></path>
	<path class="st5" d="M324.1,84.4c0-0.5,0.2-0.8,0.5-0.9c0.3-0.2,0.6-0.3,1.1-0.3s0.8,0.2,1.1,0.3c0.3,0.2,0.5,0.6,0.5,0.9   c0,0.5-0.2,0.8-0.5,0.9c-0.3,0.2-0.6,0.3-1.1,0.3s-0.8-0.2-1.1-0.3C324.2,85.2,324.1,84.9,324.1,84.4z M326.9,96.9h-2.7v-9.8h2.7   V96.9z"></path>
	<path class="st5" d="M333.1,95.1c0.5,0,0.9-0.2,1.3-0.5c0.3-0.3,0.5-0.6,0.5-1.1h2.5c0,0.6-0.2,1.3-0.6,1.9   c-0.5,0.6-0.8,0.9-1.4,1.3s-1.3,0.5-2,0.5c-1.4,0-2.5-0.5-3.3-1.4c-0.8-0.9-1.3-2.2-1.3-3.8v-0.2c0-1.6,0.5-2.8,1.3-3.6   s1.9-1.4,3.3-1.4c1.3,0,2.2,0.3,3,1.1s1.1,1.7,1.1,2.8h-2.5c0-0.5-0.2-0.9-0.5-1.3c-0.3-0.3-0.8-0.5-1.3-0.5   c-0.6,0-1.1,0.2-1.4,0.6c-0.3,0.5-0.5,1.3-0.5,2.2v0.3c0,1.1,0.2,1.7,0.5,2.2C332,94.8,332.5,95.1,333.1,95.1z"></path>
	<path class="st5" d="M343.4,97.1c-1.4,0-2.7-0.5-3.6-1.4c-0.9-0.9-1.4-2-1.4-3.6v-0.3c0-0.9,0.2-1.9,0.6-2.7   c0.5-0.8,0.9-1.4,1.6-1.9c0.6-0.5,1.6-0.6,2.3-0.6c1.4,0,2.3,0.5,3.1,1.3c0.8,0.8,1.1,2,1.1,3.6v1.4h-6.3c0.2,0.6,0.3,1.1,0.8,1.6   s0.9,0.6,1.6,0.6c1.1,0,1.9-0.3,2.3-1.1l1.3,1.4c-0.5,0.6-0.9,0.9-1.6,1.3C344.7,96.9,344.2,97.1,343.4,97.1z M343.1,89   c-0.5,0-0.9,0.2-1.3,0.5c-0.3,0.3-0.5,0.9-0.6,1.6h3.8v-0.2c0-0.6-0.2-1.1-0.5-1.4C344.2,89.1,343.6,89,343.1,89z"></path>
</g>
<g class="st4">
	<path class="st5" d="M122.9,450.8h-4.8l-0.9,2.8h-3l5-13.3h2.5l5,13.3h-3L122.9,450.8z M118.9,448.6h3.3l-1.7-5L118.9,448.6z"></path>
	<path class="st5" d="M133.7,452.5c-0.6,0.8-1.6,1.3-2.7,1.3s-1.9-0.3-2.5-0.9c-0.6-0.6-0.8-1.6-0.8-2.7v-6.6h2.7v6.4   c0,1.1,0.5,1.6,1.4,1.6c0.9,0,1.6-0.3,1.9-0.9v-7h2.7v9.8h-2.5L133.7,452.5z"></path>
	<path class="st5" d="M141.4,441.1v2.5h1.7v1.9h-1.7v5c0,0.3,0,0.6,0.2,0.8c0.2,0.2,0.5,0.3,0.8,0.3c0.3,0,0.6,0,0.8,0v2   c-0.5,0.2-1.1,0.3-1.6,0.3c-1.9,0-2.8-0.9-2.8-2.8v-5.6h-1.4v-1.9h1.4v-2.5L141.4,441.1L141.4,441.1z"></path>
	<path class="st5" d="M143.9,448.4c0-0.9,0.2-1.9,0.6-2.7c0.5-0.8,0.9-1.4,1.6-1.7c0.6-0.3,1.6-0.6,2.5-0.6c1.4,0,2.5,0.5,3.3,1.3   c0.8,0.8,1.3,1.9,1.4,3.3v0.6c0,1.6-0.5,2.8-1.3,3.6s-2,1.4-3.4,1.4c-1.4,0-2.5-0.5-3.4-1.4C144.2,451.2,143.9,450.2,143.9,448.4   L143.9,448.4z M146.5,448.6c0,0.9,0.2,1.7,0.5,2.2c0.3,0.5,0.9,0.8,1.6,0.8s1.1-0.3,1.6-0.8c0.3-0.5,0.5-1.3,0.5-2.3   c0-0.9-0.2-1.6-0.5-2.2c-0.3-0.5-0.9-0.8-1.6-0.8s-1.1,0.3-1.6,0.8C146.7,446.9,146.5,447.7,146.5,448.6z"></path>
	<path class="st5" d="M157.5,443.6l0.2,1.1c0.6-0.9,1.7-1.3,2.8-1.3c1.3,0,2.2,0.5,2.7,1.6c0.6-0.9,1.7-1.6,3-1.6   c1.1,0,1.9,0.3,2.3,0.9c0.5,0.6,0.8,1.6,0.8,2.8v6.3h-2.7v-6.3c0-0.6-0.2-0.9-0.3-1.3s-0.6-0.3-1.1-0.3c-0.8,0-1.4,0.3-1.7,1.1v6.9   h-2.7v-6.3c0-0.6-0.2-0.9-0.3-1.3s-0.6-0.3-1.1-0.3c-0.8,0-1.3,0.3-1.6,0.9v7h-2.7v-9.8h2.3V443.6z"></path>
	<path class="st5" d="M176.9,453.4c-0.2-0.3-0.2-0.5-0.3-0.9c-0.6,0.8-1.4,1.1-2.5,1.1c-0.9,0-1.7-0.3-2.3-0.8   c-0.6-0.5-0.9-1.3-0.9-2.2c0-1.1,0.3-1.9,1.1-2.3c0.8-0.5,1.9-0.8,3.4-0.8h1.3v-0.6c0-0.5-0.2-0.8-0.3-1.1   c-0.2-0.3-0.6-0.5-1.1-0.5s-0.8,0.2-1.1,0.3c-0.3,0.2-0.3,0.5-0.3,0.9h-2.7c0-0.6,0.2-1.1,0.5-1.6c0.3-0.5,0.8-0.9,1.6-1.1   c0.8-0.2,1.4-0.5,2.2-0.5c1.3,0,2.2,0.3,3,0.9c0.8,0.6,1.1,1.4,1.1,2.7v4.2c0,0.9,0.2,1.7,0.5,2.2v0.2h-3V453.4z M174.7,451.7   c0.3,0,0.8-0.2,1.1-0.3c0.3-0.2,0.6-0.5,0.8-0.6v-1.7h-0.9c-1.3,0-2,0.5-2.2,1.4v0.2c0,0.3,0.2,0.6,0.3,0.8   C173.9,451.6,174.4,451.7,174.7,451.7z"></path>
	<path class="st5" d="M184.4,441.1v2.5h1.7v1.9h-1.7v5c0,0.3,0,0.6,0.2,0.8c0.2,0.2,0.5,0.3,0.8,0.3c0.3,0,0.6,0,0.8,0v2   c-0.5,0.2-1.1,0.3-1.6,0.3c-1.9,0-2.8-0.9-2.8-2.8v-5.6h-1.4v-1.9h1.4v-2.5L184.4,441.1L184.4,441.1z"></path>
	<path class="st5" d="M187.5,441.1c0-0.5,0.2-0.8,0.5-0.9c0.3-0.2,0.6-0.3,1.1-0.3s0.8,0.2,1.1,0.3c0.3,0.2,0.5,0.6,0.5,0.9   c0,0.5-0.2,0.8-0.5,0.9c-0.3,0.2-0.6,0.3-1.1,0.3s-0.8-0.2-1.1-0.3C187.6,441.9,187.5,441.4,187.5,441.1z M190.3,453.4h-2.7v-9.8   h2.7V453.4z"></path>
	<path class="st5" d="M192.2,448.4c0-0.9,0.2-1.9,0.6-2.7c0.5-0.8,0.9-1.4,1.6-1.7c0.6-0.3,1.6-0.6,2.5-0.6c1.4,0,2.5,0.5,3.3,1.3   c0.8,0.8,1.3,1.9,1.4,3.3v0.6c0,1.6-0.5,2.8-1.3,3.6c-0.8,0.8-2,1.4-3.4,1.4c-1.4,0-2.5-0.5-3.4-1.4   C192.5,451.2,192.2,450.2,192.2,448.4L192.2,448.4z M194.8,448.6c0,0.9,0.2,1.7,0.5,2.2c0.3,0.5,0.9,0.8,1.6,0.8s1.1-0.3,1.6-0.8   c0.3-0.5,0.5-1.3,0.5-2.3c0-0.9-0.2-1.6-0.5-2.2c-0.3-0.5-0.9-0.8-1.6-0.8s-1.1,0.3-1.6,0.8C195,446.9,194.8,447.7,194.8,448.6z"></path>
	<path class="st5" d="M205.6,443.6l0.2,1.1c0.8-0.9,1.7-1.3,2.8-1.3s1.9,0.3,2.3,0.9c0.5,0.6,0.8,1.6,0.8,2.8v6.4H209v-6.4   c0-0.6-0.2-0.9-0.3-1.3s-0.6-0.3-1.3-0.3c-0.8,0-1.3,0.3-1.7,0.9v7h-2.7v-9.8h2.5V443.6z"></path>
	<path class="st5" d="M225.5,450c0-0.5-0.2-0.9-0.6-1.3c-0.5-0.3-1.1-0.6-2-0.9c-0.9-0.3-1.7-0.6-2.2-0.9c-1.6-0.8-2.3-1.9-2.3-3.3   c0-0.8,0.2-1.4,0.6-1.9c0.5-0.5,0.9-0.9,1.7-1.3c0.8-0.3,1.6-0.5,2.5-0.5c0.9,0,1.9,0.2,2.5,0.5c0.6,0.3,1.3,0.8,1.7,1.4   c0.5,0.6,0.6,1.4,0.6,2.2h-2.8c0-0.6-0.2-1.1-0.6-1.4c-0.5-0.3-0.9-0.5-1.6-0.5c-0.6,0-1.3,0.2-1.6,0.5c-0.3,0.3-0.6,0.6-0.6,1.1   c0,0.5,0.2,0.8,0.6,1.1c0.5,0.3,1.1,0.6,1.9,0.8c1.6,0.5,2.7,1.1,3.4,1.7c0.8,0.6,1.1,1.6,1.1,2.7s-0.5,2-1.3,2.7   c-0.8,0.6-2,0.9-3.6,0.9c-1.1,0-2-0.2-2.8-0.6c-0.8-0.5-1.6-0.9-1.9-1.6c-0.3-0.6-0.6-1.4-0.6-2.3h2.8c0,1.4,0.9,2.2,2.7,2.2   c0.6,0,1.1-0.2,1.6-0.5S225.5,450.5,225.5,450z"></path>
	<path class="st5" d="M234.4,453.7c-1.4,0-2.7-0.5-3.6-1.4s-1.4-2-1.4-3.6v-0.2c0-0.9,0.2-1.9,0.6-2.7c0.5-0.8,0.9-1.4,1.6-1.9   s1.6-0.6,2.3-0.6c1.4,0,2.3,0.5,3.1,1.3c0.8,0.8,1.1,2,1.1,3.6v1.1h-6.3c0.2,0.6,0.3,1.1,0.8,1.6s0.9,0.6,1.6,0.6   c1.1,0,1.9-0.3,2.3-1.1l1.3,1.4c-0.5,0.6-0.9,0.9-1.6,1.3S235.1,453.7,234.4,453.7z M234,445.6c-0.5,0-0.9,0.2-1.3,0.5   c-0.3,0.3-0.5,0.9-0.6,1.6h3.8v-0.2c0-0.6-0.2-1.1-0.5-1.4C235.1,445.8,234.7,445.6,234,445.6z"></path>
	<path class="st5" d="M245.5,446.1c-0.3,0-0.6,0-0.9,0c-0.9,0-1.7,0.3-2,1.1v6.4h-2.7v-9.8h2.5v1.3c0.5-0.9,1.3-1.4,2.2-1.4   c0.3,0,0.6,0,0.8,0.2L245.5,446.1z"></path>
	<path class="st5" d="M250.6,450.3l1.9-6.7h2.8l-3.3,9.8h-2.5l-3.3-9.8h2.8L250.6,450.3z"></path>
	<path class="st5" d="M256.4,441.1c0-0.5,0.2-0.8,0.5-0.9c0.3-0.2,0.6-0.3,1.1-0.3s0.8,0.2,1.1,0.3c0.3,0.2,0.5,0.6,0.5,0.9   c0,0.5-0.2,0.8-0.5,0.9c-0.3,0.2-0.6,0.3-1.1,0.3s-0.8-0.2-1.1-0.3C256.6,441.9,256.4,441.4,256.4,441.1z M259.2,453.4h-2.7v-9.8   h2.7V453.4z"></path>
	<path class="st5" d="M265.5,451.6c0.5,0,0.9-0.2,1.3-0.5s0.5-0.6,0.5-1.1h2.5c0,0.6-0.2,1.3-0.6,1.9c-0.5,0.6-0.8,0.9-1.4,1.3   c-0.6,0.3-1.3,0.5-2,0.5c-1.4,0-2.5-0.5-3.3-1.4c-0.8-0.9-1.4-2-1.4-3.6v-0.2c0-1.6,0.5-2.8,1.3-3.6c0.8-0.8,1.9-1.4,3.3-1.4   c1.3,0,2.2,0.3,3,1.1c0.8,0.8,1.1,1.7,1.1,2.8h-2.3c0-0.5-0.2-0.9-0.5-1.3s-0.8-0.5-1.3-0.5c-0.6,0-1.1,0.2-1.4,0.6   c-0.3,0.5-0.5,1.3-0.5,2.2v0.3c0,1.1,0.2,1.7,0.5,2.2C264.4,451.4,264.8,451.6,265.5,451.6z"></path>
	<path class="st5" d="M275.8,453.7c-1.4,0-2.7-0.5-3.6-1.4s-1.4-2-1.4-3.6v-0.2c0-0.9,0.2-1.9,0.6-2.7s0.9-1.4,1.6-1.9   c0.6-0.5,1.6-0.6,2.3-0.6c1.4,0,2.3,0.5,3.1,1.3c0.8,0.8,1.1,2,1.1,3.6v1.1h-6.3c0.2,0.6,0.3,1.1,0.8,1.6s0.9,0.6,1.6,0.6   c1.1,0,1.9-0.3,2.3-1.1l1.3,1.4c-0.5,0.6-0.9,0.9-1.6,1.3C277,453.4,276.6,453.7,275.8,453.7z M275.5,445.6c-0.5,0-0.9,0.2-1.3,0.5   s-0.5,0.9-0.6,1.6h3.8v-0.2c0-0.6-0.2-1.1-0.5-1.4C276.6,445.8,276.1,445.6,275.5,445.6z"></path>
</g>
<g class="st4">
	<path class="st5" d="M439.4,657.2h-2.2v4.8h-2.8v-13.3h5c1.6,0,2.8,0.3,3.6,1.1s1.3,1.7,1.3,3c0,0.9-0.2,1.7-0.6,2.3   c-0.5,0.6-0.9,1.1-1.7,1.4l2.8,5.5v0.2h-3L439.4,657.2z M437.2,655h2.2c0.6,0,1.3-0.2,1.6-0.5c0.3-0.3,0.6-0.8,0.6-1.4   c0-0.6-0.2-1.1-0.5-1.4c-0.3-0.3-0.9-0.5-1.7-0.5h-2.2V655z"></path>
	<path class="st5" d="M450.8,662.3c-1.4,0-2.7-0.5-3.6-1.4c-0.9-0.9-1.4-2-1.4-3.6V657c0-0.9,0.2-1.9,0.6-2.7s0.9-1.4,1.6-1.9   c0.6-0.5,1.6-0.6,2.3-0.6c1.4,0,2.3,0.5,3.1,1.3c0.8,0.8,1.1,2,1.1,3.6v1.1h-6.3c0.2,0.6,0.3,1.1,0.8,1.6s0.9,0.6,1.6,0.6   c1.1,0,1.9-0.3,2.3-1.1l1.3,1.4c-0.5,0.6-0.9,0.9-1.6,1.3C452.1,661.9,451.6,662.3,450.8,662.3z M450.5,654.2   c-0.5,0-0.9,0.2-1.3,0.5s-0.5,0.9-0.6,1.6h3.8v-0.2c0-0.6-0.2-1.1-0.5-1.4S451,654.2,450.5,654.2z"></path>
	<path class="st5" d="M461.8,659.4c0-0.3-0.2-0.6-0.5-0.8s-0.8-0.3-1.6-0.5c-2.3-0.5-3.6-1.6-3.6-3c0-0.9,0.3-1.6,1.1-2.2   c0.8-0.6,1.7-0.9,2.8-0.9c1.3,0,2.2,0.3,3,0.9s1.1,1.4,1.1,2.3h-2.7c0-0.3-0.2-0.6-0.3-0.9c-0.2-0.3-0.6-0.3-1.1-0.3   c-0.5,0-0.8,0.2-1.1,0.3c-0.3,0.2-0.3,0.5-0.3,0.8c0,0.3,0.2,0.5,0.5,0.8c0.3,0.3,0.8,0.3,1.4,0.5c0.6,0.2,1.3,0.3,1.7,0.5   c1.4,0.5,2,1.4,2,2.7c0,0.9-0.3,1.6-1.1,2.2c-0.8,0.6-1.7,0.8-3,0.8c-0.8,0-1.6-0.2-2.2-0.5c-0.6-0.3-1.1-0.6-1.6-1.3   s-0.6-1.1-0.6-1.7h2.5c0,0.5,0.2,0.8,0.5,1.1c0.3,0.3,0.8,0.3,1.3,0.3c0.5,0,0.9-0.2,1.1-0.3C461.3,660,461.8,659.7,461.8,659.4z"></path>
	<path class="st5" d="M471.9,661.1c-0.6,0.8-1.6,1.3-2.7,1.3c-1.1,0-1.9-0.3-2.5-0.9s-0.8-1.6-0.8-2.7v-6.6h2.7v6.4   c0,1.1,0.5,1.6,1.4,1.6s1.6-0.3,1.9-0.9v-7h2.7v9.8h-2.5L471.9,661.1z"></path>
	<path class="st5" d="M479.3,662.2h-2.7v-14.1h2.7V662.2z"></path>
	<path class="st5" d="M484.6,649.8v2.5h1.7v1.9h-1.7v5c0,0.3,0,0.6,0.2,0.8c0.2,0.2,0.5,0.3,0.8,0.3c0.3,0,0.6,0,0.8,0v2   c-0.5,0.2-1.1,0.3-1.6,0.3c-1.9,0-2.8-0.9-2.8-2.8v-5.6h-1.4v-1.9h1.4v-2.5H484.6z"></path>
	<path class="st5" d="M499.6,658.6c0-0.5-0.2-0.9-0.6-1.3c-0.5-0.3-1.1-0.6-2-0.9c-0.9-0.3-1.7-0.6-2.2-0.9   c-1.6-0.8-2.3-1.9-2.3-3.3c0-0.8,0.2-1.4,0.6-1.9c0.5-0.5,0.9-0.9,1.7-1.3c0.8-0.3,1.6-0.5,2.5-0.5s1.9,0.2,2.5,0.5   c0.6,0.3,1.3,0.8,1.7,1.4c0.5,0.6,0.6,1.4,0.6,2.2h-2.8c0-0.6-0.2-1.1-0.6-1.4c-0.5-0.3-0.9-0.5-1.6-0.5c-0.6,0-1.3,0.2-1.6,0.5   c-0.3,0.3-0.6,0.6-0.6,1.1s0.2,0.8,0.6,1.1c0.5,0.3,1.1,0.6,1.9,0.8c1.6,0.5,2.7,1.1,3.4,1.7c0.8,0.6,1.1,1.6,1.1,2.7   c0,1.1-0.5,2-1.3,2.7c-0.8,0.6-2,0.9-3.6,0.9c-1.1,0-2-0.2-2.8-0.6c-0.8-0.5-1.6-0.9-1.9-1.6c-0.3-0.6-0.6-1.4-0.6-2.3h2.8   c0,1.4,0.9,2.2,2.7,2.2c0.6,0,1.1-0.2,1.6-0.5C499.3,659.1,499.6,659.1,499.6,658.6z"></path>
	<path class="st5" d="M507.1,649.8v2.5h1.7v1.9h-1.7v5c0,0.3,0,0.6,0.2,0.8c0.2,0.2,0.5,0.3,0.8,0.3c0.3,0,0.6,0,0.8,0v2   c-0.5,0.2-1.1,0.3-1.6,0.3c-1.9,0-2.8-0.9-2.8-2.8v-5.6H503v-1.9h1.4v-2.5H507.1z"></path>
	<path class="st5" d="M509.6,657c0-0.9,0.2-1.9,0.6-2.7c0.5-0.8,0.9-1.4,1.6-1.7c0.6-0.3,1.6-0.6,2.5-0.6c1.4,0,2.5,0.5,3.3,1.3   c0.8,0.8,1.3,1.9,1.4,3.3v0.6c0,1.6-0.5,2.8-1.3,3.6c-0.8,0.8-2,1.4-3.4,1.4s-2.5-0.5-3.4-1.4S509.6,658.7,509.6,657L509.6,657z    M512.2,657.3c0,0.9,0.2,1.7,0.5,2.2c0.3,0.5,0.9,0.8,1.6,0.8c0.6,0,1.1-0.3,1.6-0.8c0.3-0.5,0.5-1.3,0.5-2.3   c0-0.9-0.2-1.6-0.5-2.2c-0.3-0.5-0.9-0.8-1.6-0.8c-0.6,0-1.1,0.3-1.6,0.8C512.4,655.5,512.2,656.2,512.2,657.3z"></path>
	<path class="st5" d="M526.2,654.7c-0.3,0-0.6,0-0.9,0c-0.9,0-1.7,0.3-2,1.1v6.4h-2.7v-9.8h2.5v1.3c0.5-0.9,1.3-1.4,2.2-1.4   c0.3,0,0.6,0,0.8,0.2L526.2,654.7z"></path>
	<path class="st5" d="M531.9,662.3c-1.4,0-2.7-0.5-3.6-1.4c-0.9-0.9-1.4-2-1.4-3.6V657c0-0.9,0.2-1.9,0.6-2.7s0.9-1.4,1.6-1.9   s1.6-0.6,2.3-0.6c1.4,0,2.3,0.5,3.1,1.3c0.8,0.8,1.1,2,1.1,3.6v1.1h-6.3c0.2,0.6,0.3,1.1,0.8,1.6c0.5,0.5,0.9,0.6,1.6,0.6   c1.1,0,1.9-0.3,2.3-1.1l1.3,1.4c-0.5,0.6-0.9,0.9-1.6,1.3C533.2,661.9,532.7,662.3,531.9,662.3z M531.6,654.2   c-0.5,0-0.9,0.2-1.3,0.5c-0.3,0.3-0.5,0.9-0.6,1.6h3.8v-0.2c0-0.6-0.2-1.1-0.5-1.4C532.7,654.4,532.1,654.2,531.6,654.2z"></path>
</g>
<g class="st4">
	<path class="st5" d="M742.1,529.4c0-0.5-0.2-0.9-0.6-1.3c-0.5-0.3-1.1-0.6-2-0.9c-0.9-0.3-1.7-0.6-2.2-0.9   c-1.6-0.8-2.3-1.9-2.3-3.3c0-0.8,0.2-1.4,0.6-1.9s0.9-0.9,1.7-1.3c0.8-0.3,1.6-0.5,2.5-0.5c0.9,0,1.9,0.2,2.5,0.5   c0.6,0.3,1.3,0.8,1.7,1.4c0.5,0.6,0.6,1.4,0.6,2.2h-2.5c0-0.6-0.2-1.1-0.6-1.4c-0.5-0.3-0.9-0.5-1.6-0.5c-0.6,0-1.3,0.2-1.6,0.5   c-0.3,0.3-0.6,0.6-0.6,1.1c0,0.5,0.2,0.8,0.6,1.1c0.5,0.3,1.1,0.6,1.9,0.8c1.6,0.5,2.7,1.1,3.4,1.7c0.8,0.6,1.1,1.6,1.1,2.7   s-0.5,2-1.3,2.7c-0.8,0.6-2,0.9-3.6,0.9c-1.1,0-2-0.2-2.8-0.6c-0.8-0.5-1.6-0.9-1.9-1.6c-0.3-0.6-0.6-1.4-0.6-2.3h2.8   c0,1.4,0.9,2.2,2.7,2.2c0.6,0,1.1-0.2,1.6-0.5C742.1,529.9,742.1,529.9,742.1,529.4z"></path>
	<path class="st5" d="M751.1,533c-1.4,0-2.7-0.5-3.6-1.4c-0.9-0.9-1.4-2-1.4-3.6v-0.3c0-0.9,0.2-1.9,0.6-2.7   c0.5-0.8,0.9-1.4,1.6-1.9c0.6-0.5,1.6-0.6,2.3-0.6c1.4,0,2.3,0.5,3.1,1.3c0.8,0.8,1.1,2,1.1,3.6v1.1h-6.3c0.2,0.6,0.3,1.1,0.8,1.6   c0.5,0.5,0.9,0.6,1.6,0.6c1.1,0,1.9-0.3,2.3-1.1l1.3,1.4c-0.5,0.6-0.9,0.9-1.6,1.3C752.3,532.5,751.8,533,751.1,533z M750.7,524.9   c-0.5,0-0.9,0.2-1.3,0.5c-0.3,0.3-0.5,0.9-0.6,1.6h3.8v-0.2c0-0.6-0.2-1.1-0.5-1.4C751.8,525,751.4,524.9,750.7,524.9z"></path>
	<path class="st5" d="M762.5,532.9c-0.2-0.3-0.2-0.5-0.3-0.9c-0.6,0.8-1.4,1.1-2.5,1.1c-0.9,0-1.7-0.3-2.3-0.8   c-0.6-0.5-0.9-1.3-0.9-2.2c0-1.1,0.3-1.9,1.1-2.3c0.8-0.5,1.9-0.8,3.4-0.8h1.3v-0.6c0-0.5-0.2-0.8-0.3-1.1   c-0.2-0.3-0.6-0.5-1.1-0.5s-0.8,0.2-1.1,0.3c-0.3,0.2-0.3,0.5-0.3,0.9h-2.7c0-0.6,0.2-1.1,0.5-1.6s0.8-0.9,1.6-1.1   c0.8-0.2,1.4-0.5,2.2-0.5c1.3,0,2.2,0.3,3,0.9c0.8,0.6,1.1,1.4,1.1,2.7v4.2c0,0.9,0.2,1.7,0.5,2.2v0.2h-3V532.9z M760.3,531.1   c0.3,0,0.8-0.2,1.1-0.3c0.3-0.2,0.6-0.5,0.8-0.6v-1.7h-0.9c-1.3,0-2,0.5-2.2,1.4v0.2c0,0.3,0.2,0.6,0.3,0.8   C759.5,531,759.8,531.1,760.3,531.1z"></path>
	<path class="st5" d="M772.3,525.5c-0.3,0-0.6,0-0.9,0c-0.9,0-1.7,0.3-2,1.1v6.4h-2.7v-9.8h2.5v1.3c0.5-0.9,1.3-1.4,2.2-1.4   c0.3,0,0.6,0,0.8,0.2L772.3,525.5z"></path>
	<path class="st5" d="M777.5,531c0.5,0,0.9-0.2,1.3-0.5c0.3-0.3,0.5-0.6,0.5-1.1h2.5c0,0.6-0.2,1.3-0.6,1.9   c-0.5,0.6-0.8,0.9-1.4,1.3c-0.6,0.3-1.3,0.5-2,0.5c-1.4,0-2.5-0.5-3.3-1.4s-1.3-2.2-1.3-3.8v-0.2c0-1.6,0.5-2.8,1.3-3.6   s1.9-1.4,3.3-1.4c1.3,0,2.2,0.3,3,1.1c0.8,0.8,1.1,1.7,1.1,2.8h-2.5c0-0.5-0.2-0.9-0.5-1.3c-0.3-0.3-0.8-0.5-1.3-0.5   c-0.6,0-1.1,0.2-1.4,0.6c-0.3,0.5-0.5,1.3-0.5,2.2v0.3c0,1.1,0.2,1.7,0.5,2.2C776.4,530.7,776.8,531,777.5,531z"></path>
	<path class="st5" d="M785.7,524.1c0.6-0.8,1.6-1.3,2.7-1.3c2.2,0,3.3,1.3,3.3,3.8v6.4H789v-6.3c0-0.6-0.2-0.9-0.3-1.3   c-0.2-0.3-0.6-0.5-1.3-0.5c-0.8,0-1.4,0.3-1.7,0.9v7h-2.7v-14.1h2.7V524.1z"></path>
	<path class="st5" d="M805.4,529.4c0-0.5-0.2-0.9-0.6-1.3c-0.5-0.3-1.1-0.6-2-0.9c-0.9-0.3-1.7-0.6-2.2-0.9   c-1.6-0.8-2.3-1.9-2.3-3.3c0-0.8,0.2-1.4,0.6-1.9s0.9-0.9,1.7-1.3c0.8-0.3,1.6-0.5,2.5-0.5s1.9,0.2,2.5,0.5   c0.6,0.3,1.3,0.8,1.7,1.4c0.5,0.6,0.6,1.4,0.6,2.2h-2.8c0-0.6-0.2-1.1-0.6-1.4c-0.5-0.3-0.9-0.5-1.6-0.5c-0.6,0-1.3,0.2-1.6,0.5   c-0.3,0.3-0.6,0.6-0.6,1.1c0,0.5,0.2,0.8,0.6,1.1c0.5,0.3,1.1,0.6,1.9,0.8c1.6,0.5,2.7,1.1,3.4,1.7c0.8,0.6,1.1,1.6,1.1,2.7   s-0.5,2-1.3,2.7c-0.8,0.6-2,0.9-3.6,0.9c-1.1,0-2-0.2-2.8-0.6c-0.8-0.5-1.6-0.9-1.9-1.6c-0.3-0.6-0.6-1.4-0.6-2.3h2.8   c0,1.4,0.9,2.2,2.7,2.2c0.6,0,1.1-0.2,1.6-0.5C805.1,529.9,805.4,529.9,805.4,529.4z"></path>
	<path class="st5" d="M814.3,533c-1.4,0-2.7-0.5-3.6-1.4c-0.9-0.9-1.4-2-1.4-3.6v-0.3c0-0.9,0.2-1.9,0.6-2.7   c0.5-0.8,0.9-1.4,1.6-1.9c0.6-0.5,1.6-0.6,2.3-0.6c1.4,0,2.3,0.5,3.1,1.3c0.8,0.8,1.1,2,1.1,3.6v1.1h-6.3c0.2,0.6,0.3,1.1,0.8,1.6   c0.5,0.5,0.9,0.6,1.6,0.6c1.1,0,1.9-0.3,2.3-1.1l1.3,1.4c-0.5,0.6-0.9,0.9-1.6,1.3C815.6,532.5,815.3,533,814.3,533z M814.2,524.9   c-0.5,0-0.9,0.2-1.3,0.5c-0.3,0.3-0.5,0.9-0.6,1.6h3.8v-0.2c0-0.6-0.2-1.1-0.5-1.4C815.3,525,814.7,524.9,814.2,524.9z"></path>
	<path class="st5" d="M825.6,525.5c-0.3,0-0.6,0-0.9,0c-0.9,0-1.7,0.3-2,1.1v6.4H820v-9.8h2.5v1.3c0.5-0.9,1.3-1.4,2.2-1.4   c0.3,0,0.6,0,0.8,0.2L825.6,525.5z"></path>
	<path class="st5" d="M830.8,529.7l1.9-6.7h2.8l-3.3,9.8h-2.5l-3.3-9.8h2.8L830.8,529.7z"></path>
	<path class="st5" d="M836.4,520.3c0-0.5,0.2-0.8,0.5-0.9c0.3-0.2,0.6-0.3,1.1-0.3s0.8,0.2,1.1,0.3c0.3,0.2,0.5,0.6,0.5,0.9   c0,0.5-0.2,0.8-0.5,0.9c-0.3,0.2-0.6,0.3-1.1,0.3s-0.8-0.2-1.1-0.3C836.5,521.1,836.4,520.8,836.4,520.3z M839.2,532.9h-2.7V523   h2.7V532.9z"></path>
	<path class="st5" d="M845.6,531c0.5,0,0.9-0.2,1.3-0.5c0.3-0.3,0.5-0.6,0.5-1.1h2.5c0,0.6-0.2,1.3-0.6,1.9   c-0.5,0.6-0.8,0.9-1.4,1.3c-0.6,0.3-1.3,0.5-2,0.5c-1.4,0-2.5-0.5-3.3-1.4s-1.3-2.2-1.3-3.8v-0.2c0-1.6,0.5-2.8,1.3-3.6   s1.9-1.4,3.3-1.4c1.3,0,2.2,0.3,3,1.1c0.8,0.8,1.1,1.7,1.1,2.8h-2.5c0-0.5-0.2-0.9-0.5-1.3c-0.3-0.3-0.8-0.5-1.3-0.5   c-0.6,0-1.1,0.2-1.4,0.6s-0.5,1.3-0.5,2.2v0.3c0,1.1,0.2,1.7,0.5,2.2C844.5,530.7,845,531,845.6,531z"></path>
	<path class="st5" d="M855.8,533c-1.4,0-2.7-0.5-3.6-1.4c-0.9-0.9-1.4-2-1.4-3.6v-0.3c0-0.9,0.2-1.9,0.6-2.7   c0.5-0.8,0.9-1.4,1.6-1.9c0.6-0.5,1.6-0.6,2.3-0.6c1.4,0,2.3,0.5,3.1,1.3c0.8,0.8,1.1,2,1.1,3.6v1.1h-6.3c0.2,0.6,0.3,1.1,0.8,1.6   c0.5,0.5,0.9,0.6,1.6,0.6c1.1,0,1.9-0.3,2.3-1.1l1.3,1.4c-0.5,0.6-0.9,0.9-1.6,1.3C857,532.5,856.5,533,855.8,533z M855.5,524.9   c-0.5,0-0.9,0.2-1.3,0.5c-0.3,0.3-0.5,0.9-0.6,1.6h3.8v-0.2c0-0.6-0.2-1.1-0.5-1.4C856.5,525,856.1,524.9,855.5,524.9z"></path>
</g>
<g class="st4">
	<path class="st5" d="M832.7,339.4v8.8c0,1.4-0.5,2.7-1.4,3.4s-2.2,1.3-3.8,1.3s-2.8-0.5-3.8-1.3s-1.4-2-1.4-3.4v-8.9h2.8v8.8   c0,0.9,0.2,1.6,0.6,1.9c0.5,0.3,0.9,0.6,1.7,0.6c1.6,0,2.3-0.8,2.3-2.5v-8.9h2.8V339.4z"></path>
	<path class="st5" d="M843.6,347.8c0,1.6-0.3,2.8-1.1,3.6c-0.8,0.8-1.6,1.4-2.8,1.4c-0.9,0-1.9-0.3-2.5-1.1v4.7h-2.7v-13.8h2.5   l0.2,0.9c0.6-0.8,1.4-1.1,2.5-1.1c1.3,0,2.2,0.5,2.8,1.4S843.6,346.1,843.6,347.8L843.6,347.8z M841,347.6c0-0.9-0.2-1.6-0.5-2.2   c-0.3-0.6-0.8-0.8-1.4-0.8c-0.8,0-1.4,0.3-1.7,0.9v4.1c0.3,0.6,0.9,0.9,1.7,0.9C840.3,350.6,841,349.7,841,347.6z"></path>
	<path class="st5" d="M848.1,352.7h-2.7v-14.1h2.7V352.7z"></path>
	<path class="st5" d="M849.9,347.6c0-0.9,0.2-1.9,0.6-2.7c0.5-0.8,0.9-1.4,1.6-1.7c0.6-0.3,1.6-0.6,2.5-0.6c1.4,0,2.5,0.5,3.3,1.3   c0.8,0.8,1.3,1.9,1.4,3.3v0.6c0,1.6-0.5,2.8-1.3,3.6c-0.8,0.8-2,1.4-3.4,1.4s-2.5-0.5-3.4-1.4C850.2,350.5,849.9,349.4,849.9,347.6   L849.9,347.6z M852.5,347.8c0,0.9,0.2,1.7,0.5,2.2s0.9,0.8,1.6,0.8c0.6,0,1.1-0.3,1.6-0.8c0.3-0.5,0.5-1.3,0.5-2.3   c0-0.9-0.2-1.6-0.5-2.2c-0.3-0.5-0.9-0.8-1.6-0.8c-0.6,0-1.1,0.3-1.6,0.8C852.7,345.9,852.5,346.7,852.5,347.8z"></path>
	<path class="st5" d="M866.6,352.7c-0.2-0.3-0.2-0.5-0.3-0.9c-0.6,0.8-1.4,1.1-2.5,1.1c-0.9,0-1.7-0.3-2.3-0.8   c-0.6-0.5-0.9-1.3-0.9-2.2c0-1.1,0.3-1.9,1.1-2.3s1.9-0.8,3.4-0.8h1.3v-0.6c0-0.5-0.2-0.8-0.3-1.1c-0.2-0.3-0.6-0.5-1.1-0.5   s-0.8,0.2-1.1,0.3c-0.3,0.2-0.3,0.5-0.3,0.9h-2.7c0-0.6,0.2-1.1,0.5-1.6s0.8-0.9,1.6-1.1c0.8-0.2,1.4-0.5,2.2-0.5   c1.3,0,2.2,0.3,3,0.9c0.8,0.6,1.1,1.4,1.1,2.7v4.2c0,0.9,0.2,1.7,0.5,2.2v0.2h-3V352.7z M864.4,350.8c0.3,0,0.8-0.2,1.1-0.3   s0.6-0.5,0.8-0.6v-1.7h-0.9c-1.3,0-2,0.5-2.2,1.4v0.2c0,0.3,0.2,0.6,0.3,0.8S864.1,350.8,864.4,350.8z"></path>
	<path class="st5" d="M870.5,347.6c0-1.6,0.3-2.8,1.1-3.8c0.8-0.9,1.6-1.4,2.8-1.4c0.9,0,1.7,0.3,2.3,1.1v-5h2.7v14.1h-2.3l-0.2-1.1   c-0.6,0.8-1.6,1.3-2.5,1.3c-1.1,0-2-0.5-2.8-1.4C870.8,350.5,870.5,349.2,870.5,347.6z M873.2,347.8c0,0.9,0.2,1.7,0.5,2.2   c0.3,0.5,0.8,0.8,1.4,0.8c0.8,0,1.4-0.3,1.7-1.1v-3.9c-0.3-0.6-0.9-1.1-1.7-1.1C873.8,344.7,873.2,345.8,873.2,347.8z"></path>
	<path class="st5" d="M893.3,349.2c0-0.5-0.2-0.9-0.6-1.3c-0.5-0.3-1.1-0.6-2-0.9c-0.9-0.3-1.7-0.6-2.2-0.9   c-1.6-0.8-2.3-1.9-2.3-3.3c0-0.8,0.2-1.4,0.6-1.9c0.5-0.5,0.9-0.9,1.7-1.3s1.6-0.5,2.5-0.5s1.9,0.2,2.5,0.5s1.3,0.8,1.7,1.4   c0.5,0.6,0.6,1.4,0.6,2.2H893c0-0.6-0.2-1.1-0.6-1.4c-0.5-0.3-0.9-0.5-1.6-0.5c-0.6,0-1.3,0.2-1.6,0.5s-0.6,0.6-0.6,1.1   s0.2,0.8,0.6,1.1c0.5,0.3,1.1,0.6,1.9,0.8c1.6,0.5,2.7,1.1,3.4,1.7c0.8,0.6,1.1,1.6,1.1,2.7c0,1.1-0.5,2-1.3,2.7s-2,0.9-3.6,0.9   c-1.1,0-2-0.2-2.8-0.6s-1.6-0.9-1.9-1.6c-0.3-0.6-0.6-1.4-0.6-2.3h2.8c0,1.4,0.9,2.2,2.7,2.2c0.6,0,1.1-0.2,1.6-0.5   S893.3,349.7,893.3,349.2z"></path>
	<path class="st5" d="M902.2,352.8c-1.4,0-2.7-0.5-3.6-1.4s-1.4-2-1.4-3.6v-0.3c0-0.9,0.2-1.9,0.6-2.7c0.5-0.8,0.9-1.4,1.6-1.9   c0.6-0.5,1.6-0.6,2.3-0.6c1.4,0,2.3,0.5,3.1,1.3c0.8,0.8,1.1,2,1.1,3.6v1.1h-6.3c0.2,0.6,0.3,1.1,0.8,1.6s0.9,0.6,1.6,0.6   c1.1,0,1.9-0.3,2.3-1.1l1.3,1.4c-0.5,0.6-0.9,0.9-1.6,1.3C903.5,352.3,903,352.8,902.2,352.8z M901.9,344.7c-0.5,0-0.9,0.2-1.3,0.5   c-0.3,0.3-0.5,0.9-0.6,1.6h3.8v-0.2c0-0.6-0.2-1.1-0.5-1.4S902.5,344.7,901.9,344.7z"></path>
	<path class="st5" d="M913.3,345.1c-0.3,0-0.6,0-0.9,0c-0.9,0-1.7,0.3-2,1.1v6.4h-2.5v-9.8h2.5v1.3c0.5-0.9,1.3-1.4,2.2-1.4   c0.3,0,0.6,0,0.8,0.2V345.1z"></path>
	<path class="st5" d="M918.5,349.4l1.9-6.7h2.8l-3.3,9.8h-2.7l-3.3-9.8h2.8L918.5,349.4z"></path>
	<path class="st5" d="M924.3,340.1c0-0.5,0.2-0.8,0.5-0.9c0.3-0.2,0.6-0.3,1.1-0.3s0.8,0.2,1.1,0.3s0.5,0.6,0.5,0.9   c0,0.5-0.2,0.8-0.5,0.9c-0.3,0.2-0.6,0.3-1.1,0.3s-0.8-0.2-1.1-0.3C924.4,340.9,924.3,340.6,924.3,340.1z M927.1,352.7h-2.7v-9.8   h2.7V352.7z"></path>
	<path class="st5" d="M933.5,350.6c0.5,0,0.9-0.2,1.3-0.5s0.5-0.6,0.5-1.1h2.5c0,0.6-0.2,1.3-0.6,1.9c-0.5,0.6-0.8,0.9-1.4,1.3   c-0.6,0.3-1.3,0.5-2,0.5c-1.4,0-2.5-0.5-3.3-1.4c-0.8-0.9-1.3-2.2-1.3-3.8v-0.2c0-1.6,0.5-2.8,1.3-3.6c0.8-0.8,1.9-1.4,3.3-1.4   c1.3,0,2.2,0.3,3,1.1c0.8,0.8,1.1,1.7,1.1,2.8h-2.5c0-0.5-0.2-0.9-0.5-1.3s-0.8-0.5-1.3-0.5c-0.6,0-1.1,0.2-1.4,0.6   c-0.3,0.5-0.5,1.3-0.5,2.2v0.3c0,1.1,0.2,1.7,0.5,2.2C932.2,350.5,932.7,350.6,933.5,350.6z"></path>
	<path class="st5" d="M943.6,352.8c-1.4,0-2.7-0.5-3.6-1.4s-1.4-2-1.4-3.6v-0.3c0-0.9,0.2-1.9,0.6-2.7c0.5-0.8,0.9-1.4,1.6-1.9   c0.6-0.5,1.6-0.6,2.3-0.6c1.4,0,2.3,0.5,3.1,1.3c0.8,0.8,1.1,2,1.1,3.6v1.1h-6.3c0.2,0.6,0.3,1.1,0.8,1.6s0.9,0.6,1.6,0.6   c1.1,0,1.9-0.3,2.3-1.1l1.3,1.4c-0.5,0.6-0.9,0.9-1.6,1.3C944.9,352.3,944.4,352.8,943.6,352.8z M943.3,344.7   c-0.5,0-0.9,0.2-1.3,0.5c-0.3,0.3-0.5,0.9-0.6,1.6h3.8v-0.2c0-0.6-0.2-1.1-0.5-1.4S943.9,344.7,943.3,344.7z"></path>
</g>
<g class="st4">
	<path class="st5" d="M693.9,108.4v8.8c0,1.4-0.5,2.7-1.4,3.4s-2.2,1.3-3.8,1.3s-2.8-0.5-3.8-1.3s-1.4-2-1.4-3.4v-8.9h2.8v8.9   c0,0.9,0.2,1.6,0.6,1.9s0.9,0.6,1.7,0.6c1.6,0,2.3-0.8,2.3-2.5v-8.9h2.8V108.4z"></path>
	<path class="st5" d="M701.4,119.1c0-0.3-0.2-0.6-0.5-0.8c-0.3-0.2-0.8-0.3-1.6-0.5c-2.3-0.5-3.6-1.6-3.6-3c0-0.9,0.3-1.6,1.1-2.2   c0.8-0.6,1.7-0.9,2.8-0.9c1.3,0,2.2,0.3,3,0.9c0.8,0.6,1.1,1.4,1.1,2.3h-2.7c0-0.3-0.2-0.6-0.3-0.9c-0.2-0.3-0.6-0.3-1.1-0.3   s-0.8,0.2-1.1,0.3c-0.3,0.2-0.3,0.5-0.3,0.8c0,0.3,0.2,0.5,0.5,0.8c0.3,0.3,0.8,0.3,1.4,0.5c0.6,0.2,1.3,0.3,1.7,0.5   c1.4,0.5,2,1.4,2,2.7c0,0.9-0.3,1.6-1.1,2.2s-1.7,0.8-3,0.8c-0.8,0-1.6-0.2-2.2-0.5s-1.1-0.6-1.6-1.3c-0.5-0.6-0.6-1.1-0.6-1.7h2.5   c0,0.5,0.2,0.8,0.5,1.1s0.8,0.3,1.3,0.3c0.5,0,0.9-0.2,1.1-0.3S701.4,119.4,701.4,119.1z"></path>
	<path class="st5" d="M710.3,121.9c-1.4,0-2.7-0.5-3.6-1.4c-0.9-0.9-1.4-2-1.4-3.6v-0.3c0-0.9,0.2-1.9,0.6-2.7   c0.5-0.8,0.9-1.4,1.6-1.9c0.6-0.5,1.6-0.6,2.3-0.6c1.4,0,2.3,0.5,3.1,1.3c0.8,0.8,1.1,2,1.1,3.6v1.1h-6.3c0.2,0.6,0.3,1.1,0.8,1.6   c0.5,0.5,0.9,0.6,1.6,0.6c1.1,0,1.9-0.3,2.3-1.1l1.3,1.4c-0.5,0.6-0.9,0.9-1.6,1.3C711.6,121.4,711.1,121.9,710.3,121.9z    M710,113.7c-0.5,0-0.9,0.2-1.3,0.5c-0.3,0.3-0.5,0.9-0.6,1.6h3.8v-0.2c0-0.6-0.2-1.1-0.5-1.4C711.1,113.9,710.5,113.7,710,113.7z"></path>
	<path class="st5" d="M721.4,114.4c-0.3,0-0.6,0-0.9,0c-0.9,0-1.7,0.3-2,1.1v6.4h-2.7V112h2.5v1.3c0.5-0.9,1.3-1.4,2.2-1.4   c0.3,0,0.6,0,0.8,0.2L721.4,114.4z"></path>
	<path class="st5" d="M731.1,108.4l3.4,9.7l3.4-9.7h3.6v13.3h-2.8v-3.6l0.3-6.3l-3.6,10h-1.9l-3.6-10l0.3,6.3v3.6h-2.8v-13.3   C727.5,108.4,731.1,108.4,731.1,108.4z"></path>
	<path class="st5" d="M749.5,121.7c-0.2-0.3-0.2-0.5-0.3-0.9c-0.6,0.8-1.4,1.1-2.5,1.1c-0.9,0-1.7-0.3-2.3-0.8   c-0.6-0.5-0.9-1.3-0.9-2.2c0-1.1,0.3-1.9,1.1-2.3c0.8-0.5,1.9-0.8,3.4-0.8h1.3v-0.6c0-0.5-0.2-0.8-0.3-1.1   c-0.2-0.3-0.6-0.5-1.1-0.5s-0.8,0.2-1.1,0.3c-0.3,0.2-0.3,0.5-0.3,0.9h-2.7c0-0.6,0.2-1.1,0.5-1.6c0.3-0.5,0.8-0.9,1.6-1.1   c0.8-0.2,1.4-0.5,2.2-0.5c1.3,0,2.2,0.3,3,0.9c0.8,0.6,1.1,1.4,1.1,2.7v4.2c0,0.9,0.2,1.7,0.5,2.2v0.2h-3V121.7z M747.3,119.8   c0.3,0,0.8-0.2,1.1-0.3s0.6-0.5,0.8-0.6v-1.7h-0.9c-1.3,0-2,0.5-2.2,1.4v0.2c0,0.3,0.2,0.6,0.3,0.8S746.9,119.8,747.3,119.8z"></path>
	<path class="st5" d="M756.3,111.9l0.2,1.1c0.8-0.9,1.7-1.3,2.8-1.3s1.9,0.3,2.3,0.9c0.5,0.6,0.8,1.6,0.8,2.8v6.4h-2.7v-6.4   c0-0.6-0.2-0.9-0.3-1.3c-0.2-0.3-0.6-0.3-1.3-0.3c-0.8,0-1.3,0.3-1.7,0.9v7h-2.7V112h2.5V111.9z"></path>
	<path class="st5" d="M770,121.7c-0.2-0.3-0.2-0.5-0.3-0.9c-0.6,0.8-1.4,1.1-2.5,1.1c-0.9,0-1.7-0.3-2.3-0.8   c-0.6-0.5-0.9-1.3-0.9-2.2c0-1.1,0.3-1.9,1.1-2.3c0.8-0.5,1.9-0.8,3.4-0.8h1.3v-0.6c0-0.5-0.2-0.8-0.3-1.1   c-0.2-0.3-0.6-0.5-1.1-0.5s-0.8,0.2-1.1,0.3c-0.3,0.2-0.3,0.5-0.3,0.9h-2.7c0-0.6,0.2-1.1,0.5-1.6c0.3-0.5,0.8-0.9,1.6-1.1   c0.8-0.2,1.4-0.5,2.2-0.5c1.3,0,2.2,0.3,3,0.9c0.8,0.6,1.1,1.4,1.1,2.7v4.2c0,0.9,0.2,1.7,0.5,2.2v0.2h-3V121.7z M767.8,119.8   c0.3,0,0.8-0.2,1.1-0.3s0.6-0.5,0.8-0.6v-1.7h-0.9c-1.3,0-2,0.5-2.2,1.4v0.2c0,0.3,0.2,0.6,0.3,0.8   C767,119.7,767.5,119.8,767.8,119.8z"></path>
	<path class="st5" d="M774.1,116.7c0-1.6,0.3-2.8,1.1-3.6c0.8-0.8,1.7-1.4,3-1.4c1.1,0,1.9,0.3,2.5,1.1l0.2-0.9h2.3v9.5   c0,0.9-0.2,1.6-0.6,2.2c-0.5,0.6-0.9,1.1-1.7,1.4c-0.8,0.3-1.6,0.5-2.5,0.5c-0.8,0-1.4-0.2-2.2-0.5c-0.8-0.3-1.3-0.6-1.6-1.1   l1.3-1.6c0.6,0.8,1.4,1.1,2.3,1.1c0.6,0,1.3-0.2,1.6-0.6c0.3-0.5,0.6-0.9,0.6-1.6v-0.5c-0.6,0.6-1.4,1.1-2.3,1.1   c-1.3,0-2.2-0.5-2.8-1.4C774.5,119.5,774.1,118.4,774.1,116.7L774.1,116.7z M776.6,116.9c0,0.9,0.2,1.6,0.5,2.2   c0.3,0.5,0.8,0.8,1.4,0.8c0.8,0,1.4-0.3,1.7-0.9v-4.2c-0.3-0.6-0.9-0.9-1.7-0.9c-0.6,0-1.1,0.3-1.6,0.8   C776.9,115.2,776.6,115.9,776.6,116.9z"></path>
	<path class="st5" d="M789.7,121.9c-1.4,0-2.7-0.5-3.6-1.4s-1.4-2-1.4-3.6v-0.3c0-0.9,0.2-1.9,0.6-2.7c0.5-0.8,0.9-1.4,1.6-1.9   c0.6-0.5,1.6-0.6,2.3-0.6c1.4,0,2.3,0.5,3.1,1.3c0.8,0.8,1.1,2,1.1,3.6v1.1h-6.3c0.2,0.6,0.3,1.1,0.8,1.6c0.5,0.5,0.9,0.6,1.6,0.6   c1.1,0,1.9-0.3,2.3-1.1l1.3,1.4c-0.5,0.6-0.9,0.9-1.6,1.3C791,121.4,790.5,121.9,789.7,121.9z M789.4,113.7c-0.5,0-0.9,0.2-1.3,0.5   c-0.3,0.3-0.5,0.9-0.6,1.6h3.8v-0.2c0-0.6-0.2-1.1-0.5-1.4C790.5,113.9,789.9,113.7,789.4,113.7z"></path>
	<path class="st5" d="M797.7,111.9l0.2,1.1c0.6-0.9,1.7-1.3,2.8-1.3c1.3,0,2.2,0.5,2.7,1.6c0.6-0.9,1.7-1.6,3-1.6   c1.1,0,1.9,0.3,2.3,0.9c0.5,0.6,0.8,1.6,0.8,2.8v6.3h-2.7v-6.3c0-0.6-0.2-0.9-0.3-1.3s-0.6-0.3-1.1-0.3c-0.8,0-1.4,0.3-1.7,1.1v6.9   H801v-6.3c0-0.6-0.2-0.9-0.3-1.3s-0.6-0.3-1.1-0.3c-0.8,0-1.3,0.3-1.6,0.9v7h-2.7v-9.8h2.3V111.9z"></path>
	<path class="st5" d="M816,121.9c-1.4,0-2.7-0.5-3.6-1.4c-0.9-0.9-1.4-2-1.4-3.6v-0.3c0-0.9,0.2-1.9,0.6-2.7s0.9-1.4,1.6-1.9   c0.6-0.5,1.6-0.6,2.3-0.6c1.4,0,2.3,0.5,3.1,1.3c0.8,0.8,1.1,2,1.1,3.6v1.1h-6.3c0.2,0.6,0.3,1.1,0.8,1.6c0.5,0.5,0.9,0.6,1.6,0.6   c1.1,0,1.9-0.3,2.3-1.1l1.3,1.4c-0.5,0.6-0.9,0.9-1.6,1.3C817.2,121.4,816.9,121.9,816,121.9z M815.6,113.7c-0.5,0-0.9,0.2-1.3,0.5   c-0.3,0.3-0.5,0.9-0.6,1.6h3.8v-0.2c0-0.6-0.2-1.1-0.5-1.4C816.7,113.9,816.3,113.7,815.6,113.7z"></path>
	<path class="st5" d="M824.1,111.9l0.2,1.1c0.8-0.9,1.7-1.3,2.8-1.3s1.9,0.3,2.3,0.9c0.5,0.6,0.8,1.6,0.8,2.8v6.4h-2.7v-6.4   c0-0.6-0.2-0.9-0.3-1.3c-0.2-0.3-0.6-0.3-1.3-0.3c-0.8,0-1.3,0.3-1.7,0.9v7h-2.7V112h2.5V111.9z"></path>
	<path class="st5" d="M835.3,109.4v2.5h1.7v1.9h-1.7v5c0,0.3,0,0.6,0.2,0.8c0.2,0.2,0.5,0.3,0.8,0.3s0.6,0,0.8,0v2   c-0.5,0.2-1.1,0.3-1.6,0.3c-1.9,0-2.8-0.9-2.8-2.8v-5.3h-1.4v-1.9h1.4v-2.8H835.3z"></path>
</g>
<g class="st4">
	<path class="st5" d="M544.7,283l3.4,9.7l3.4-9.7h3.6v13.3h-2.8v-3.6l0.3-6.3l-3.6,10h-1.9l-3.6-10l0.3,6.3v3.6h-2.8V283H544.7z"></path>
	<path class="st5" d="M561.9,296.6c-1.4,0-2.7-0.5-3.6-1.4c-0.9-0.9-1.4-2-1.4-3.6v-0.3c0-0.9,0.2-1.9,0.6-2.7   c0.5-0.8,0.9-1.4,1.6-1.9c0.6-0.5,1.6-0.6,2.3-0.6c1.4,0,2.3,0.5,3.1,1.3c0.8,0.8,1.1,2,1.1,3.6v1.1h-6.3c0.2,0.6,0.3,1.1,0.8,1.6   s0.9,0.6,1.6,0.6c1.1,0,1.9-0.3,2.3-1.1l1.3,1.4c-0.5,0.6-0.9,0.9-1.6,1.3C563.2,296.1,562.7,296.6,561.9,296.6z M561.6,288.5   c-0.5,0-0.9,0.2-1.3,0.5c-0.3,0.3-0.5,0.9-0.6,1.6h3.8v-0.2c0-0.6-0.2-1.1-0.5-1.4C562.7,288.6,562.2,288.5,561.6,288.5z"></path>
	<path class="st5" d="M570.7,284.1v2.5h1.7v1.9h-1.7v5c0,0.3,0,0.6,0.2,0.8c0.2,0.2,0.5,0.3,0.8,0.3s0.6,0,0.8,0v2   c-0.5,0.2-1.1,0.3-1.6,0.3c-1.9,0-2.8-0.9-2.8-2.8v-5.3h-1.4v-1.9h1.4v-2.5h2.7V284.1z"></path>
	<path class="st5" d="M579.6,296.5c-0.2-0.3-0.2-0.5-0.3-0.9c-0.6,0.8-1.4,1.1-2.5,1.1c-0.9,0-1.7-0.3-2.3-0.8   c-0.6-0.5-0.9-1.3-0.9-2.2c0-1.1,0.3-1.9,1.1-2.3c0.8-0.5,1.9-0.8,3.4-0.8h1.3v-0.6c0-0.5-0.2-0.8-0.3-1.1   c-0.2-0.3-0.6-0.5-1.1-0.5s-0.8,0.2-1.1,0.3c-0.3,0.2-0.3,0.5-0.3,0.9h-2.7c0-0.6,0.2-1.1,0.5-1.6c0.3-0.5,0.8-0.9,1.6-1.1   c0.8-0.2,1.4-0.5,2.2-0.5c1.3,0,2.2,0.3,3,0.9c0.8,0.6,1.1,1.4,1.1,2.7v4.2c0,0.9,0.2,1.7,0.5,2.2v0.2h-3V296.5z M577.4,294.6   c0.3,0,0.8-0.2,1.1-0.3c0.3-0.2,0.6-0.5,0.8-0.6v-1.7h-0.9c-1.3,0-2,0.5-2.2,1.4v0.2c0,0.3,0.2,0.6,0.3,0.8   C576.6,294.4,576.9,294.6,577.4,294.6z"></path>
	<path class="st5" d="M583.5,291.5c0-1.6,0.3-2.8,1.1-3.8c0.8-0.9,1.6-1.4,2.8-1.4c0.9,0,1.7,0.3,2.3,1.1v-5h2.7v14.1H590l-0.2-1.1   c-0.6,0.8-1.6,1.3-2.5,1.3c-1.1,0-2-0.5-2.8-1.4C583.8,294.3,583.5,293,583.5,291.5z M586.1,291.6c0,0.9,0.2,1.7,0.5,2.2   c0.3,0.5,0.8,0.8,1.4,0.8c0.8,0,1.4-0.3,1.7-1.1v-3.9c-0.3-0.6-0.9-1.1-1.7-1.1C586.8,288.5,586.1,289.6,586.1,291.6z"></path>
	<path class="st5" d="M600.2,296.5c-0.2-0.3-0.2-0.5-0.3-0.9c-0.6,0.8-1.4,1.1-2.5,1.1c-0.9,0-1.7-0.3-2.3-0.8s-0.9-1.3-0.9-2.2   c0-1.1,0.3-1.9,1.1-2.3c0.8-0.5,1.9-0.8,3.4-0.8h1.3v-0.6c0-0.5-0.2-0.8-0.3-1.1c-0.2-0.3-0.6-0.5-1.1-0.5c-0.5,0-0.8,0.2-1.1,0.3   c-0.3,0.2-0.3,0.5-0.3,0.9h-2.7c0-0.6,0.2-1.1,0.5-1.6c0.3-0.5,0.8-0.9,1.6-1.1c0.8-0.2,1.4-0.5,2.2-0.5c1.3,0,2.2,0.3,3,0.9   c0.8,0.6,1.1,1.4,1.1,2.7v4.2c0,0.9,0.2,1.7,0.5,2.2v0.2h-3V296.5z M598,294.6c0.3,0,0.8-0.2,1.1-0.3c0.3-0.2,0.6-0.5,0.8-0.6v-1.7   h-0.9c-1.3,0-2,0.5-2.2,1.4v0.2c0,0.3,0.2,0.6,0.3,0.8C597.2,294.4,597.5,294.6,598,294.6z"></path>
	<path class="st5" d="M607.7,284.1v2.5h1.7v1.9h-1.7v5c0,0.3,0,0.6,0.2,0.8c0.2,0.2,0.5,0.3,0.8,0.3s0.6,0,0.8,0v2   c-0.5,0.2-1.1,0.3-1.6,0.3c-1.9,0-2.8-0.9-2.8-2.8v-5.3h-1.4v-1.9h1.4v-2.5h2.7V284.1z"></path>
	<path class="st5" d="M616.6,296.5c-0.2-0.3-0.2-0.5-0.3-0.9c-0.6,0.8-1.4,1.1-2.5,1.1c-0.9,0-1.7-0.3-2.3-0.8   c-0.6-0.5-0.9-1.3-0.9-2.2c0-1.1,0.3-1.9,1.1-2.3s1.9-0.8,3.4-0.8h1.3v-0.6c0-0.5-0.2-0.8-0.3-1.1c-0.2-0.3-0.6-0.5-1.1-0.5   c-0.5,0-0.8,0.2-1.1,0.3c-0.3,0.2-0.3,0.5-0.3,0.9h-2.7c0-0.6,0.2-1.1,0.5-1.6c0.3-0.5,0.8-0.9,1.6-1.1c0.8-0.2,1.4-0.5,2.2-0.5   c1.3,0,2.2,0.3,3,0.9c0.8,0.6,1.1,1.4,1.1,2.7v4.2c0,0.9,0.2,1.7,0.5,2.2v0.2h-3V296.5z M614.4,294.6c0.3,0,0.8-0.2,1.1-0.3   c0.3-0.2,0.6-0.5,0.8-0.6v-1.7h-0.9c-1.3,0-2,0.5-2.2,1.4v0.2c0,0.3,0.2,0.6,0.3,0.8C613.6,294.4,613.9,294.6,614.4,294.6z"></path>
	<path class="st5" d="M629.3,283l3.4,9.7l3.4-9.7h3.6v13.3h-2.8v-3.6l0.3-6.3l-3.6,10h-1.9l-3.6-10l0.3,6.3v3.6h-2.8V283H629.3z"></path>
	<path class="st5" d="M641.6,291.5c0-0.9,0.2-1.9,0.6-2.7s0.9-1.4,1.6-1.7c0.6-0.3,1.6-0.6,2.5-0.6c1.4,0,2.5,0.5,3.3,1.3   s1.3,1.9,1.4,3.3v0.6c0,1.6-0.5,2.8-1.3,3.6c-0.8,0.8-2,1.4-3.4,1.4s-2.5-0.5-3.4-1.4C641.9,294.3,641.6,293,641.6,291.5   L641.6,291.5z M644.3,291.6c0,0.9,0.2,1.7,0.5,2.2c0.3,0.5,0.9,0.8,1.6,0.8s1.1-0.3,1.6-0.8c0.3-0.5,0.5-1.3,0.5-2.3   c0-0.9-0.2-1.6-0.5-2.2c-0.3-0.5-0.9-0.8-1.6-0.8s-1.1,0.3-1.6,0.8C644.4,289.7,644.3,290.5,644.3,291.6z"></path>
	<path class="st5" d="M652.2,291.5c0-1.6,0.3-2.8,1.1-3.8c0.8-0.9,1.6-1.4,2.8-1.4c0.9,0,1.7,0.3,2.3,1.1v-5h2.7v14.1h-2.3l-0.2-1.1   c-0.6,0.8-1.6,1.3-2.5,1.3c-1.1,0-2-0.5-2.8-1.4C652.5,294.3,652.2,293,652.2,291.5z M654.9,291.6c0,0.9,0.2,1.7,0.5,2.2   c0.3,0.5,0.8,0.8,1.4,0.8c0.8,0,1.4-0.3,1.7-1.1v-3.9c-0.3-0.6-0.9-1.1-1.7-1.1C655.5,288.5,654.9,289.6,654.9,291.6z"></path>
	<path class="st5" d="M667.7,296.6c-1.4,0-2.7-0.5-3.6-1.4c-0.9-0.9-1.4-2-1.4-3.6v-0.3c0-0.9,0.2-1.9,0.6-2.7   c0.5-0.8,0.9-1.4,1.6-1.9c0.6-0.5,1.6-0.6,2.3-0.6c1.4,0,2.3,0.5,3.1,1.3c0.8,0.8,1.1,2,1.1,3.6v1.1h-6.3c0.2,0.6,0.3,1.1,0.8,1.6   s0.9,0.6,1.6,0.6c1.1,0,1.9-0.3,2.3-1.1l1.3,1.4c-0.5,0.6-0.9,0.9-1.6,1.3C669,296.1,668.5,296.6,667.7,296.6z M667.4,288.5   c-0.5,0-0.9,0.2-1.3,0.5s-0.5,0.9-0.6,1.6h3.8v-0.2c0-0.6-0.2-1.1-0.5-1.4C668.5,288.6,668,288.5,667.4,288.5z"></path>
	<path class="st5" d="M676.1,296.5h-2.7v-14.1h2.7V296.5z"></path>
</g>
</svg>
